<!-- Generator: Adobe Illustrator 23.0.1, SVG Export Plug-In  -->
<svg version="1.1" xmlns="http://www.w3.org/2000/svg" xmlns:xlink="http://www.w3.org/1999/xlink" x="0px" y="0px"
	 width="260.193px" height="180.184px" viewBox="0 0 260.193 180.184" style="enable-background:new 0 0 260.193 180.184;"
	 xml:space="preserve">
<style type="text/css">
	.st0{fill:#F48120;}
	.st1{fill:none;stroke:#D0E4EA;stroke-width:6;stroke-linecap:round;stroke-miterlimit:10;}
	.st2{fill:#D0E4EA;}
</style>
<defs>
</defs>
<g>
	<path class="st0" d="M151.619,64.623c0.473,0,0.948-0.17,1.324-0.516c0.027-0.024,0.055-0.052,0.08-0.078
		c0.764-0.763,0.764-2.002,0-2.766c-0.764-0.764-2.002-0.764-2.766,0c-0.002,0.002-0.006,0.005-0.01,0.009
		c-0.749,0.736-0.784,1.939-0.069,2.718C150.563,64.411,151.091,64.623,151.619,64.623L151.619,64.623z M151.619,64.623"/>
	<path class="st0" d="M169.322,53.379c-4.273,0-8.53,1.025-12.311,2.965c-0.961,0.493-1.34,1.672-0.847,2.633
		c0.493,0.961,1.672,1.341,2.633,0.848c3.277-1.681,6.818-2.534,10.525-2.534c12.727,0,23.083,10.356,23.083,23.084
		c0,4.696-1.402,9.214-4.054,13.067c-0.413,0.601-0.837,1.21-1.264,1.826c-4.437,6.391-9.415,13.563-10.217,20.708h-15.097
		c-0.802-7.145-5.78-14.317-10.217-20.708c-0.428-0.616-0.851-1.225-1.265-1.826c-2.651-3.854-4.053-8.372-4.053-13.067
		c0-4.298,1.189-8.49,3.437-12.125c0.569-0.919,0.284-2.124-0.634-2.692c-0.919-0.569-2.124-0.284-2.693,0.634
		c-2.632,4.253-4.022,9.157-4.022,14.183c0,5.49,1.64,10.777,4.743,15.286c0.416,0.606,0.843,1.219,1.274,1.839
		c4.187,6.03,8.89,12.807,9.551,18.991c-1.347,0.728-2.265,2.153-2.265,3.789v7.042c0,1.669,0.955,3.118,2.347,3.831v1.646
		c0,2.804,2.282,5.086,5.086,5.086h12.52c2.804,0,5.086-2.282,5.086-5.086v-1.646c1.391-0.714,2.347-2.163,2.347-3.831v-7.042
		c0-1.636-0.918-3.062-2.265-3.789c0.662-6.184,5.364-12.96,9.551-18.991c0.431-0.62,0.857-1.234,1.274-1.839
		c3.103-4.509,4.743-9.795,4.743-15.286C196.317,65.49,184.207,53.379,169.322,53.379L169.322,53.379z M179.102,120.28v1.565h-6.07
		c-1.081,0-1.956,0.876-1.956,1.956c0,1.08,0.876,1.956,1.956,1.956h6.07v1.565c0,0.212-0.179,0.391-0.39,0.391h-18.78
		c-0.212,0-0.39-0.179-0.39-0.391v-7.042c0-0.212,0.179-0.391,0.39-0.391h18.78C178.923,119.889,179.102,120.067,179.102,120.28
		L179.102,120.28z M175.582,133.973h-12.52c-0.636,0-1.174-0.537-1.174-1.174v-1.174h14.868v1.174
		C176.756,133.436,176.218,133.973,175.582,133.973L175.582,133.973z M175.582,133.973"/>
	<path class="st0" d="M169.322,47.839c1.08,0,1.956-0.877,1.956-1.956v-6.197c0-1.08-0.877-1.956-1.956-1.956
		c-1.081,0-1.956,0.876-1.956,1.956v6.197C167.366,46.963,168.242,47.839,169.322,47.839L169.322,47.839z M169.322,47.839"/>
	<path class="st0" d="M143.549,57.369c0.382,0.381,0.883,0.573,1.383,0.573c0.501,0,1.002-0.192,1.384-0.573
		c0.763-0.764,0.763-2.003,0-2.767l-4.382-4.381c-0.764-0.763-2.002-0.763-2.766,0c-0.764,0.764-0.764,2.003,0,2.767L143.549,57.369
		z M143.549,57.369"/>
	<path class="st0" d="M134.83,78.419h-6.197c-1.08,0-1.956,0.876-1.956,1.956c0,1.08,0.876,1.956,1.956,1.956h6.197
		c1.08,0,1.956-0.877,1.956-1.956C136.786,79.294,135.91,78.419,134.83,78.419L134.83,78.419z M134.83,78.419"/>
	<path class="st0" d="M143.549,103.381l-4.381,4.382c-0.764,0.763-0.764,2.002,0,2.766c0.382,0.382,0.882,0.573,1.383,0.573
		c0.5,0,1.001-0.191,1.383-0.573l4.382-4.381c0.763-0.763,0.763-2.002,0-2.766C145.552,102.617,144.313,102.617,143.549,103.381
		L143.549,103.381z M143.549,103.381"/>
	<path class="st0" d="M195.095,103.381c-0.764-0.764-2.002-0.764-2.767,0c-0.763,0.763-0.763,2.002,0,2.766l4.382,4.381
		c0.382,0.382,0.883,0.573,1.384,0.573s1.001-0.191,1.383-0.573c0.763-0.763,0.763-2.002,0-2.766L195.095,103.381z M195.095,103.381
		"/>
	<path class="st0" d="M210.01,78.419h-6.196c-1.08,0-1.956,0.876-1.956,1.956c0,1.08,0.876,1.956,1.956,1.956h6.196
		c1.08,0,1.956-0.877,1.956-1.956C211.967,79.294,211.091,78.419,210.01,78.419L210.01,78.419z M210.01,78.419"/>
	<path class="st0" d="M196.71,50.22l-4.382,4.381c-0.763,0.764-0.763,2.003,0,2.767c0.382,0.381,0.883,0.573,1.384,0.573
		c0.5,0,1.001-0.192,1.383-0.573l4.381-4.382c0.763-0.764,0.763-2.003,0-2.767C198.712,49.456,197.474,49.456,196.71,50.22
		L196.71,50.22z M196.71,50.22"/>
	<path class="st0" d="M167.365,125.757h0.046c1.081,0,1.956-0.876,1.956-1.956c0-1.08-0.876-1.956-1.956-1.956h-0.046
		c-1.08,0-1.956,0.876-1.956,1.956C165.409,124.881,166.285,125.757,167.365,125.757L167.365,125.757z M167.365,125.757"/>
	<path class="st0" d="M170.704,92.097c-0.764-0.764-2.003-0.764-2.767,0c-0.763,0.764-0.763,2.003,0,2.766
		c0.764,0.764,2.003,0.764,2.767,0C171.469,94.1,171.469,92.861,170.704,92.097L170.704,92.097z M170.704,92.097"/>
	<path class="st0" d="M180.387,84.371c0.501,0,1.001-0.191,1.383-0.573c0.764-0.764,0.764-2.003,0-2.767
		c-6.864-6.864-18.033-6.864-24.898,0c-0.764,0.764-0.764,2.003,0,2.767c0.764,0.763,2.002,0.763,2.766,0
		c5.339-5.339,14.026-5.339,19.365,0C179.386,84.18,179.887,84.371,180.387,84.371L180.387,84.371z M180.387,84.371"/>
	<path class="st0" d="M174.854,89.904c0.501,0,1.001-0.192,1.383-0.573c0.764-0.764,0.764-2.003,0-2.767
		c-3.814-3.813-10.018-3.813-13.832,0c-0.763,0.764-0.763,2.003,0,2.767c0.764,0.763,2.003,0.763,2.767,0
		c2.288-2.289,6.011-2.289,8.299,0C173.853,89.712,174.354,89.904,174.854,89.904L174.854,89.904z M174.854,89.904"/>
</g>
<g>
	<path class="st1" d="M252.222,71.425C243.676,32.297,208.834,3,167.142,3c-48.1,0-87.092,38.992-87.092,87.092
		c0,48.1,38.993,87.092,87.092,87.092c41.691,0,76.534-29.297,85.08-68.425"/>
	<circle class="st2" cx="253.926" cy="90.092" r="6.268"/>
	<line class="st1" x1="67.34" y1="90.092" x2="3" y2="90.092"/>
</g>
</svg>