<!-- Generator: Adobe Illustrator 23.0.1, SVG Export Plug-In  -->
<svg version="1.1" xmlns="http://www.w3.org/2000/svg" xmlns:xlink="http://www.w3.org/1999/xlink" x="0px" y="0px"
	 width="260.193px" height="180.184px" viewBox="0 0 260.193 180.184" style="enable-background:new 0 0 260.193 180.184;"
	 xml:space="preserve">
<style type="text/css">
	.st0{fill:#F48120;}
	.st1{fill:none;stroke:#D0E4EA;stroke-width:6;stroke-linecap:round;stroke-miterlimit:10;}
	.st2{fill:#D0E4EA;}
</style>
<defs>
</defs>
<g>
	<path class="st0" d="M54.815,85.398h40.708c0.803,0,1.454-0.651,1.454-1.454V69.406c0-0.803-0.651-1.454-1.454-1.454H54.815
		c-0.803,0-1.454,0.651-1.454,1.454v14.539C53.361,84.747,54.012,85.398,54.815,85.398L54.815,85.398z M56.268,70.86h37.801v11.631
		H56.268V70.86z M56.268,70.86"/>
	<path class="st0" d="M79.53,92.668h-8.723c-0.803,0-1.454,0.651-1.454,1.454v8.723c0,0.803,0.651,1.454,1.454,1.454h8.723
		c0.803,0,1.454-0.651,1.454-1.454v-8.723C80.984,93.319,80.333,92.668,79.53,92.668L79.53,92.668z M78.076,101.391h-5.815v-5.815
		h5.815V101.391z M78.076,101.391"/>
	<path class="st0" d="M63.538,92.668h-8.723c-0.803,0-1.454,0.651-1.454,1.454v8.723c0,0.803,0.651,1.454,1.454,1.454h8.723
		c0.803,0,1.454-0.651,1.454-1.454v-8.723C64.992,93.319,64.34,92.668,63.538,92.668L63.538,92.668z M62.084,101.391h-5.815v-5.815
		h5.815V101.391z M62.084,101.391"/>
	<path class="st0" d="M95.523,92.668H86.8c-0.803,0-1.454,0.651-1.454,1.454v8.723c0,0.803,0.651,1.454,1.454,1.454h8.723
		c0.803,0,1.454-0.651,1.454-1.454v-8.723C96.977,93.319,96.326,92.668,95.523,92.668L95.523,92.668z M94.069,101.391h-5.815v-5.815
		h5.815V101.391z M94.069,101.391"/>
	<path class="st0" d="M79.53,107.206h-8.723c-0.803,0-1.454,0.651-1.454,1.454v8.723c0,0.803,0.651,1.454,1.454,1.454h8.723
		c0.803,0,1.454-0.651,1.454-1.454v-8.723C80.984,107.858,80.333,107.206,79.53,107.206L79.53,107.206z M78.076,115.93h-5.815
		v-5.815h5.815V115.93z M78.076,115.93"/>
	<path class="st0" d="M63.538,107.206h-8.723c-0.803,0-1.454,0.651-1.454,1.454v8.723c0,0.803,0.651,1.454,1.454,1.454h8.723
		c0.803,0,1.454-0.651,1.454-1.454v-8.723C64.992,107.858,64.34,107.206,63.538,107.206L63.538,107.206z M62.084,115.93h-5.815
		v-5.815h5.815V115.93z M62.084,115.93"/>
	<path class="st0" d="M95.523,107.206H86.8c-0.803,0-1.454,0.651-1.454,1.454v23.262c0,0.803,0.651,1.454,1.454,1.454h8.723
		c0.803,0,1.454-0.651,1.454-1.454V108.66C96.977,107.858,96.326,107.206,95.523,107.206L95.523,107.206z M94.069,130.468h-5.815
		v-20.354h5.815V130.468z M94.069,130.468"/>
	<path class="st0" d="M79.53,121.745h-8.723c-0.803,0-1.454,0.651-1.454,1.454v8.723c0,0.803,0.651,1.454,1.454,1.454h8.723
		c0.803,0,1.454-0.651,1.454-1.454v-8.723C80.984,122.397,80.333,121.745,79.53,121.745L79.53,121.745z M78.076,130.468h-5.815
		v-5.815h5.815V130.468z M78.076,130.468"/>
	<path class="st0" d="M63.538,121.745h-8.723c-0.803,0-1.454,0.651-1.454,1.454v8.723c0,0.803,0.651,1.454,1.454,1.454h8.723
		c0.803,0,1.454-0.651,1.454-1.454v-8.723C64.992,122.397,64.34,121.745,63.538,121.745L63.538,121.745z M62.084,130.468h-5.815
		v-5.815h5.815V130.468z M62.084,130.468"/>
	<path class="st0" d="M138.458,60.777c-0.681-0.971-1.792-1.549-2.977-1.549h-6.519v-2.181c-0.002-2.007-1.628-3.633-3.635-3.635
		h-32.11l-3.935-3.937c-0.274-0.273-0.644-0.425-1.029-0.425h-16.72c-2.007,0.002-3.633,1.628-3.635,3.635V63.59H54.088
		c-2.809,0.003-5.086,2.279-5.089,5.089v65.424c0.003,2.809,2.279,5.086,5.089,5.089H96.25c2.809-0.003,5.086-2.279,5.089-5.089
		v-31.258h24.641c1.529-0.003,2.893-0.958,3.417-2.394c0.014-0.042,0.029-0.085,0.04-0.129l9.487-36.29
		C139.294,62.934,139.122,61.727,138.458,60.777L138.458,60.777z M70.807,52.686c0-0.401,0.326-0.727,0.727-0.727h16.118
		l3.935,3.937c0.274,0.273,0.644,0.425,1.029,0.425h32.712c0.401,0,0.727,0.326,0.727,0.727v2.181H82.513
		c-1.529,0.003-2.893,0.958-3.417,2.394c-0.012,0.032-0.024,0.067-0.032,0.099l-0.527,1.868h-7.729V52.686z M98.431,134.103
		c-0.001,1.204-0.977,2.18-2.181,2.181H54.088c-1.204-0.001-2.18-0.977-2.181-2.181V89.76h46.524V134.103z M98.431,86.852H51.907
		V68.679c0.001-1.204,0.977-2.18,2.181-2.181H96.25c1.204,0.001,2.18,0.977,2.181,2.181V86.852z M136.164,63.112
		c-0.014,0.042-0.029,0.085-0.04,0.129l-9.479,36.263c-0.118,0.263-0.378,0.433-0.666,0.433h-24.641V68.679
		c-0.003-2.809-2.279-5.086-5.089-5.089H81.557l0.287-1.012c0.115-0.268,0.378-0.442,0.669-0.442h52.968
		C135.986,62.135,136.338,62.638,136.164,63.112L136.164,63.112z M136.164,63.112"/>
	<path class="st0" d="M127.508,107.206h-20.354c-0.803,0-1.454,0.651-1.454,1.454v26.17c0,0.803,0.651,1.454,1.454,1.454h20.354
		c0.803,0,1.454-0.651,1.454-1.454v-26.17C128.962,107.858,128.311,107.206,127.508,107.206L127.508,107.206z M126.054,133.376
		h-17.446v-23.262h17.446V133.376z M126.054,133.376"/>
	<path class="st0" d="M111.516,114.476h11.631c0.803,0,1.454-0.651,1.454-1.454c0-0.803-0.651-1.454-1.454-1.454h-11.631
		c-0.803,0-1.454,0.651-1.454,1.454C110.062,113.824,110.713,114.476,111.516,114.476L111.516,114.476z M111.516,114.476"/>
	<path class="st0" d="M111.516,118.837h11.631c0.803,0,1.454-0.651,1.454-1.454c0-0.803-0.651-1.454-1.454-1.454h-11.631
		c-0.803,0-1.454,0.651-1.454,1.454C110.062,118.186,110.713,118.837,111.516,118.837L111.516,118.837z M111.516,118.837"/>
	<path class="st0" d="M111.516,123.199h11.631c0.803,0,1.454-0.651,1.454-1.454c0-0.803-0.651-1.454-1.454-1.454h-11.631
		c-0.803,0-1.454,0.651-1.454,1.454C110.062,122.548,110.713,123.199,111.516,123.199L111.516,123.199z M111.516,123.199"/>
	<path class="st0" d="M111.516,127.561h11.631c0.803,0,1.454-0.651,1.454-1.454c0-0.803-0.651-1.454-1.454-1.454h-11.631
		c-0.803,0-1.454,0.651-1.454,1.454C110.062,126.909,110.713,127.561,111.516,127.561L111.516,127.561z M111.516,127.561"/>
	<path class="st0" d="M111.516,131.922h4.362c0.803,0,1.454-0.651,1.454-1.454c0-0.803-0.651-1.454-1.454-1.454h-4.362
		c-0.803,0-1.454,0.651-1.454,1.454C110.062,131.271,110.713,131.922,111.516,131.922L111.516,131.922z M111.516,131.922"/>
	<path class="st0" d="M121.693,129.015h-1.454c-0.803,0-1.454,0.651-1.454,1.454c0,0.803,0.651,1.454,1.454,1.454h1.454
		c0.803,0,1.454-0.651,1.454-1.454C123.147,129.666,122.495,129.015,121.693,129.015L121.693,129.015z M121.693,129.015"/>
</g>
<g>
	<path class="st1" d="M7.971,108.759c8.545,39.128,43.388,68.425,85.08,68.425c48.1,0,87.092-38.992,87.092-87.092
		C180.143,41.992,141.151,3,93.051,3C51.36,3,16.517,32.297,7.971,71.425"/>
	<circle class="st2" cx="6.268" cy="90.092" r="6.268"/>
	<line class="st1" x1="192.853" y1="90.092" x2="257.193" y2="90.092"/>
</g>
</svg>