<!-- Generator: Adobe Illustrator 23.0.1, SVG Export Plug-In  -->
<svg version="1.1" xmlns="http://www.w3.org/2000/svg" xmlns:xlink="http://www.w3.org/1999/xlink" x="0px" y="0px"
	 width="260.193px" height="180.184px" viewBox="0 0 260.193 180.184" style="enable-background:new 0 0 260.193 180.184;"
	 xml:space="preserve">
<style type="text/css">
	.st0{fill:#F48120;}
	.st1{fill:none;stroke:#D0E4EA;stroke-width:6;stroke-linecap:round;stroke-miterlimit:10;}
	.st2{fill:#D0E4EA;}
</style>
<defs>
</defs>
<g>
	<path class="st0" d="M134.159,130.229c-1.097,0-1.989-0.891-1.989-1.989V68.581c0-1.097,0.891-1.989,1.989-1.989h35.796
		c1.097,0,1.989,0.891,1.989,1.989v43.75c0,1.097-0.891,1.989-1.989,1.989c-1.097,0-1.989-0.891-1.989-1.989V70.569h-31.818v57.671
		C136.148,129.337,135.256,130.229,134.159,130.229L134.159,130.229z M134.159,130.229"/>
	<path class="st0" d="M162,70.569c-1.097,0-1.989-0.891-1.989-1.989v-9.943h-15.909v9.943c0,1.097-0.891,1.989-1.989,1.989
		s-1.989-0.891-1.989-1.989V56.649c0-1.097,0.891-1.989,1.989-1.989H162c1.097,0,1.989,0.891,1.989,1.989v11.932
		C163.988,69.678,163.097,70.569,162,70.569L162,70.569z M162,70.569"/>
	<path class="st0" d="M152.057,58.637c-1.097,0-1.989-0.891-1.989-1.989V44.717c0-1.097,0.891-1.989,1.989-1.989
		c1.097,0,1.989,0.891,1.989,1.989v11.932C154.045,57.746,153.154,58.637,152.057,58.637L152.057,58.637z M152.057,58.637"/>
	<path class="st0" d="M146.091,130.229c-1.097,0-1.989-0.891-1.989-1.989V80.512c0-1.097,0.891-1.989,1.989-1.989
		s1.989,0.891,1.989,1.989v47.727C148.079,129.337,147.188,130.229,146.091,130.229L146.091,130.229z M146.091,130.229"/>
	<path class="st0" d="M158.023,130.229h-31.818c-1.097,0-1.989-0.891-1.989-1.989s0.891-1.989,1.989-1.989h29.83V80.512
		c0-1.097,0.891-1.989,1.989-1.989c1.097,0,1.989,0.891,1.989,1.989v47.727C160.011,129.337,159.12,130.229,158.023,130.229
		L158.023,130.229z M158.023,130.229"/>
	<path class="st0" d="M206.271,138.183h-26.979c-6.247,0-11.327-5.174-11.327-11.534c0-5.843,4.287-10.683,9.828-11.431
		c1.77-7.421,8.396-12.831,16.025-12.831c6.01,0,11.55,3.361,14.425,8.651c6.495,0.958,11.427,6.666,11.427,13.486
		C219.67,132.058,213.657,138.183,206.271,138.183L206.271,138.183z M193.818,106.365c-6.201,0-11.522,4.733-12.389,11.013
		c-0.135,0.983-0.975,1.714-1.969,1.714c-4.219,0-7.517,3.393-7.517,7.558c0,4.167,3.298,7.556,7.35,7.556h26.979
		c5.198,0,9.422-4.343,9.422-9.681c0-5.122-3.89-9.359-8.854-9.64c-0.74-0.044-1.392-0.489-1.698-1.157
		C203.105,109.257,198.659,106.365,193.818,106.365L193.818,106.365z M193.818,106.365"/>
</g>
<g>
	<path class="st1" d="M252.222,71.425C243.676,32.297,208.834,3,167.142,3c-48.1,0-87.092,38.992-87.092,87.092
		c0,48.1,38.993,87.092,87.092,87.092c41.691,0,76.534-29.297,85.08-68.425"/>
	<circle class="st2" cx="253.926" cy="90.092" r="6.268"/>
	<line class="st1" x1="67.34" y1="90.092" x2="3" y2="90.092"/>
</g>
</svg>