<!-- Generator: Adobe Illustrator 23.0.1, SVG Export Plug-In  -->
<svg version="1.1" xmlns="http://www.w3.org/2000/svg" xmlns:xlink="http://www.w3.org/1999/xlink" x="0px" y="0px"
	 width="260.193px" height="180.184px" viewBox="0 0 260.193 180.184" style="enable-background:new 0 0 260.193 180.184;"
	 xml:space="preserve">
<style type="text/css">
	.st0{fill:#F48120;}
	.st1{fill:none;stroke:#D0E4EA;stroke-width:6;stroke-linecap:round;stroke-miterlimit:10;}
	.st2{fill:#D0E4EA;}
</style>
<defs>
</defs>
<g>
	<path class="st0" d="M127.988,126.772c0,0.75-0.608,1.359-1.359,1.359h-13.585v-4.646c-0.013-4.284-2.877-8.035-7.006-9.177
		l-7.938-2.159v-2.056c2.545-1.772,4.066-4.673,4.076-7.774v-2.572c0.346-0.158,0.565-0.271,0.607-0.288
		c0.461-0.23,0.752-0.701,0.752-1.216v-8.151l7.28-2.8c0.526-0.201,0.874-0.706,0.874-1.269c0-0.563-0.348-1.067-0.874-1.269
		l-17.661-6.793c-0.314-0.119-0.661-0.119-0.975,0l-17.661,6.793c-0.523,0.201-0.868,0.703-0.871,1.262v6.23l-3.678,3.678
		l1.921,1.921l1.757-1.757v2.155h2.717v-2.155l1.757,1.757l1.921-1.921l-3.678-3.678v-4.252l5.434,2.098v8.151
		c-0.003,0.517,0.289,0.992,0.752,1.223c0.042,0.021,0.261,0.129,0.607,0.288v2.565c-0.024,3.11,1.504,6.027,4.076,7.778v2.052
		l-7.942,2.16c-4.127,1.142-6.989,4.893-7.002,9.176v4.646H58.703c-0.75,0-1.359-0.608-1.359-1.359V73.79h38.039v-2.717H57.344
		V64.28c0-0.75,0.608-1.359,1.359-1.359h36.68v-2.717h-36.68c-2.251,0-4.076,1.825-4.076,4.076v62.492
		c0,2.251,1.825,4.076,4.076,4.076h67.927c2.251,0,4.076-1.825,4.076-4.076V76.507h-2.717V126.772z M89.949,113.187v-1.766
		c1.771,0.545,3.664,0.545,5.434,0v1.766c0.005,0.389,0.177,0.758,0.474,1.01l-3.191,2.659l-3.191-2.657
		C89.772,113.946,89.945,113.577,89.949,113.187L89.949,113.187z M92.666,80.678l13.876,5.338l-13.876,5.338L78.79,86.016
		L92.666,80.678z M92.178,94.078c0.314,0.119,0.661,0.119,0.975,0l7.664-2.948v6.249c-2.559,1.231-5.321,1.985-8.151,2.223
		c-2.83-0.24-5.592-0.994-8.151-2.224v-6.249L92.178,94.078z M85.873,102.319v-1.458c2.169,0.856,4.464,1.349,6.793,1.458
		c2.329-0.109,4.624-0.602,6.793-1.458v1.458c-0.003,2.427-1.301,4.669-3.406,5.879c-2.104,1.211-4.694,1.206-6.794-0.012
		c-0.513-0.291-0.983-0.652-1.397-1.072C86.582,105.848,85.865,104.12,85.873,102.319L85.873,102.319z M75.005,123.485
		c0.01-3.059,2.055-5.739,5.004-6.555l6.408-1.743l5.38,4.483c0.504,0.42,1.235,0.42,1.739,0l5.38-4.483l6.404,1.741
		c2.95,0.816,4.996,3.496,5.008,6.557v4.646h-4.076v-5.434h-2.717v5.434H81.798v-5.434h-2.717v5.434h-4.076V123.485z
		 M75.005,123.485"/>
	<rect x="62.778" y="65.638" class="st0" width="2.717" height="2.717"/>
	<rect x="68.212" y="65.638" class="st0" width="2.717" height="2.717"/>
	<rect x="73.646" y="65.638" class="st0" width="2.717" height="2.717"/>
	<path class="st0" d="M129.346,49.336h-27.171c-2.251,0-4.076,1.825-4.076,4.076v16.302c0,2.251,1.825,4.076,4.076,4.076h4.076
		v5.434c0,0.577,0.364,1.091,0.909,1.282c0.145,0.05,0.297,0.076,0.45,0.076c0.413,0,0.803-0.187,1.061-0.509l5.026-6.283h15.65
		c2.251,0,4.076-1.825,4.076-4.076V53.412C133.422,51.161,131.597,49.336,129.346,49.336L129.346,49.336z M130.705,69.714
		c0,0.75-0.608,1.359-1.359,1.359h-16.302c-0.413,0-0.803,0.187-1.061,0.509l-3.015,3.768v-2.919c0-0.75-0.608-1.359-1.359-1.359
		h-5.434c-0.75,0-1.359-0.608-1.359-1.359V53.412c0-0.75,0.608-1.359,1.359-1.359h27.171c0.75,0,1.359,0.608,1.359,1.359V69.714z
		 M130.705,69.714"/>
	<rect x="106.251" y="54.77" class="st0" width="19.019" height="2.717"/>
	<rect x="106.251" y="60.204" class="st0" width="19.019" height="2.717"/>
	<rect x="106.251" y="65.638" class="st0" width="19.019" height="2.717"/>
</g>
<g>
	<path class="st1" d="M7.971,108.759c8.545,39.128,43.388,68.425,85.08,68.425c48.1,0,87.092-38.992,87.092-87.092
		C180.143,41.992,141.151,3,93.051,3C51.36,3,16.517,32.297,7.971,71.425"/>
	<circle class="st2" cx="6.268" cy="90.092" r="6.268"/>
	<line class="st1" x1="192.853" y1="90.092" x2="257.193" y2="90.092"/>
</g>
</svg>