<!-- Generator: Adobe Illustrator 23.0.1, SVG Export Plug-In  -->
<svg version="1.1" xmlns="http://www.w3.org/2000/svg" xmlns:xlink="http://www.w3.org/1999/xlink" x="0px" y="0px"
	 width="260.193px" height="180.184px" viewBox="0 0 260.193 180.184" style="enable-background:new 0 0 260.193 180.184;"
	 xml:space="preserve">
<style type="text/css">
	.st0{fill:#F48120;}
	.st1{fill:none;stroke:#D0E4EA;stroke-width:6;stroke-linecap:round;stroke-miterlimit:10;}
	.st2{fill:#D0E4EA;}
</style>
<defs>
</defs>
<g>
	<path class="st0" d="M158.319,98.607h5.545c0.765,0,1.386-0.621,1.386-1.386v-3.087c-0.003-2.122-1.722-3.841-3.844-3.844h-0.63
		c-2.122,0.003-3.841,1.722-3.844,3.844v3.087C156.933,97.986,157.554,98.607,158.319,98.607L158.319,98.607z M159.705,94.134
		c0.001-0.591,0.48-1.07,1.071-1.071h0.63c0.591,0.001,1.07,0.48,1.071,1.071v1.701h-2.772V94.134z M159.705,94.134"/>
	<path class="st0" d="M144.458,98.607h5.545c0.765,0,1.386-0.621,1.386-1.386v-3.087c-0.003-2.122-1.722-3.841-3.844-3.844h-0.63
		c-2.122,0.003-3.841,1.722-3.844,3.844v3.087C143.072,97.986,143.693,98.607,144.458,98.607L144.458,98.607z M145.844,94.134
		c0.001-0.591,0.48-1.07,1.071-1.071h0.63c0.591,0.001,1.07,0.48,1.071,1.071v1.701h-2.772V94.134z M145.844,94.134"/>
	<path class="st0" d="M186.043,98.607h5.545c0.765,0,1.386-0.621,1.386-1.386v-3.087c-0.003-2.122-1.722-3.841-3.844-3.844h-0.63
		c-2.122,0.003-3.841,1.722-3.844,3.844v3.087C184.656,97.986,185.277,98.607,186.043,98.607L186.043,98.607z M187.429,94.134
		c0.001-0.591,0.48-1.07,1.071-1.071h0.63c0.591,0.001,1.07,0.48,1.071,1.071v1.701h-2.772V94.134z M187.429,94.134"/>
	<path class="st0" d="M172.181,98.607h5.545c0.765,0,1.386-0.621,1.386-1.386v-3.087c-0.003-2.122-1.722-3.841-3.844-3.844h-0.63
		c-2.122,0.003-3.841,1.722-3.844,3.844v3.087C170.795,97.986,171.416,98.607,172.181,98.607L172.181,98.607z M173.567,94.134
		c0.001-0.591,0.48-1.07,1.071-1.071h0.63c0.591,0.001,1.07,0.48,1.071,1.071v1.701h-2.772V94.134z M173.567,94.134"/>
	<path class="st0" d="M158.319,87.518h5.545c0.765,0,1.386-0.621,1.386-1.386v-3.087c-0.003-2.122-1.722-3.841-3.844-3.844h-0.63
		c-2.122,0.003-3.841,1.722-3.844,3.844v3.087C156.933,86.897,157.554,87.518,158.319,87.518L158.319,87.518z M159.705,83.044
		c0.001-0.591,0.48-1.07,1.071-1.071h0.63c0.591,0.001,1.07,0.48,1.071,1.071v1.701h-2.772V83.044z M159.705,83.044"/>
	<path class="st0" d="M144.458,87.518h5.545c0.765,0,1.386-0.621,1.386-1.386v-3.087c-0.003-2.122-1.722-3.841-3.844-3.844h-0.63
		c-2.122,0.003-3.841,1.722-3.844,3.844v3.087C143.072,86.897,143.693,87.518,144.458,87.518L144.458,87.518z M145.844,83.044
		c0.001-0.591,0.48-1.07,1.071-1.071h0.63c0.591,0.001,1.07,0.48,1.071,1.071v1.701h-2.772V83.044z M145.844,83.044"/>
	<path class="st0" d="M186.043,87.518h5.545c0.765,0,1.386-0.621,1.386-1.386v-3.087c-0.003-2.122-1.722-3.841-3.844-3.844h-0.63
		c-2.122,0.003-3.841,1.722-3.844,3.844v3.087C184.656,86.897,185.277,87.518,186.043,87.518L186.043,87.518z M187.429,83.044
		c0.001-0.591,0.48-1.07,1.071-1.071h0.63c0.591,0.001,1.07,0.48,1.071,1.071v1.701h-2.772V83.044z M187.429,83.044"/>
	<path class="st0" d="M172.181,87.518h5.545c0.765,0,1.386-0.621,1.386-1.386v-3.087c-0.003-2.122-1.722-3.841-3.844-3.844h-0.63
		c-2.122,0.003-3.841,1.722-3.844,3.844v3.087C170.795,86.897,171.416,87.518,172.181,87.518L172.181,87.518z M173.567,83.044
		c0.001-0.591,0.48-1.07,1.071-1.071h0.63c0.591,0.001,1.07,0.48,1.071,1.071v1.701h-2.772V83.044z M173.567,83.044"/>
	<path class="st0" d="M158.319,76.428h5.545c0.765,0,1.386-0.621,1.386-1.386v-3.087c-0.003-2.122-1.722-3.841-3.844-3.844h-0.63
		c-2.122,0.003-3.841,1.722-3.844,3.844v3.087C156.933,75.807,157.554,76.428,158.319,76.428L158.319,76.428z M159.705,71.955
		c0.001-0.591,0.48-1.07,1.071-1.071h0.63c0.591,0.001,1.07,0.48,1.071,1.071v1.701h-2.772V71.955z M159.705,71.955"/>
	<path class="st0" d="M144.458,76.428h5.545c0.765,0,1.386-0.621,1.386-1.386v-3.087c-0.003-2.122-1.722-3.841-3.844-3.844h-0.63
		c-2.122,0.003-3.841,1.722-3.844,3.844v3.087C143.072,75.807,143.693,76.428,144.458,76.428L144.458,76.428z M145.844,71.955
		c0.001-0.591,0.48-1.07,1.071-1.071h0.63c0.591,0.001,1.07,0.48,1.071,1.071v1.701h-2.772V71.955z M145.844,71.955"/>
	<path class="st0" d="M186.043,76.428h5.545c0.765,0,1.386-0.621,1.386-1.386v-3.087c-0.003-2.122-1.722-3.841-3.844-3.844h-0.63
		c-2.122,0.003-3.841,1.722-3.844,3.844v3.087C184.656,75.807,185.277,76.428,186.043,76.428L186.043,76.428z M187.429,71.955
		c0.001-0.591,0.48-1.07,1.071-1.071h0.63c0.591,0.001,1.07,0.48,1.071,1.071v1.701h-2.772V71.955z M187.429,71.955"/>
	<path class="st0" d="M172.181,76.428h5.545c0.765,0,1.386-0.621,1.386-1.386v-3.087c-0.003-2.122-1.722-3.841-3.844-3.844h-0.63
		c-2.122,0.003-3.841,1.722-3.844,3.844v3.087C170.795,75.807,171.416,76.428,172.181,76.428L172.181,76.428z M173.567,71.955
		c0.001-0.591,0.48-1.07,1.071-1.071h0.63c0.591,0.001,1.07,0.48,1.071,1.071v1.701h-2.772V71.955z M173.567,71.955"/>
	<path class="st0" d="M205.676,129.103h0.182c0.994,0,1.928-0.474,2.515-1.274c0.587-0.801,0.758-1.835,0.459-2.782l-3.221-10.221
		c-0.18-0.569-0.703-0.96-1.3-0.97h-0.023c-0.588,0-1.113,0.372-1.308,0.927l-3.574,10.168c-0.336,0.954-0.188,2.012,0.397,2.837
		c0.585,0.825,1.533,1.316,2.545,1.316h0.554v2.772h-4.386v-27.723h2.772v-2.772h-2.772v-36.04c0.765,0,1.386-0.621,1.386-1.386
		v-4.158h1.386c0.765,0,1.386-0.621,1.386-1.386v-5.545c0-0.765-0.621-1.386-1.386-1.386h-66.536c-0.765,0-1.386,0.621-1.386,1.386
		v5.545c0,0.765,0.621,1.386,1.386,1.386h1.386v4.158c0,0.765,0.621,1.386,1.386,1.386v36.04h-2.772v2.772h2.772v27.723h-4.158
		v-2.772h0.327c1.012,0,1.96-0.491,2.545-1.316c0.585-0.826,0.733-1.884,0.397-2.837l-3.574-10.168
		c-0.195-0.555-0.719-0.927-1.308-0.927h-0.023c-0.597,0.01-1.12,0.401-1.3,0.97l-3.221,10.222c-0.299,0.948-0.128,1.98,0.459,2.781
		c0.588,0.801,1.522,1.274,2.515,1.274h0.41v2.772h-4.158v2.772h83.17v-2.772h-3.931V129.103z M130.186,126.33
		c-0.234,0-0.401-0.227-0.33-0.45l1.97-6.255l2.195,6.243c0.079,0.226-0.088,0.461-0.326,0.462H130.186z M136.141,57.022V54.25
		h63.763v2.772H136.141z M147.23,131.875h-6.931v-2.772h6.931V131.875z M158.319,131.875h-2.772v-4.158
		c0-0.765,0.621-1.386,1.386-1.386s1.386,0.621,1.386,1.386V131.875z M169.409,131.875h-2.772v-4.158
		c0-0.765,0.621-1.386,1.386-1.386c0.765,0,1.386,0.621,1.386,1.386V131.875z M180.498,131.875h-2.772v-4.158
		c0-0.765,0.621-1.386,1.386-1.386s1.386,0.621,1.386,1.386V131.875z M186.043,127.716v4.158h-2.772v-4.158
		c0-2.297-1.862-4.158-4.158-4.158c-2.297,0-4.158,1.862-4.158,4.158v4.158h-2.772v-4.158c0-2.297-1.862-4.158-4.158-4.158
		c-2.297,0-4.158,1.862-4.158,4.158v4.158h-2.772v-4.158c0-2.297-1.862-4.158-4.158-4.158c-2.297,0-4.158,1.862-4.158,4.158v4.158
		h-2.772v-11.089h36.04V127.716z M147.23,118.013v-2.772h41.585v2.772H147.23z M153.631,112.469l1.386-2.772h26.01l1.386,2.772
		H153.631z M195.746,131.875h-6.931v-2.772h6.931V131.875z M195.746,126.33h-6.931v-5.545h1.386c0.765,0,1.386-0.621,1.386-1.386
		v-5.545c0-0.765-0.621-1.386-1.386-1.386h-4.688l-2.389-4.779c-0.234-0.469-0.715-0.766-1.24-0.766h-27.723
		c-0.525,0-1.005,0.297-1.24,0.766l-2.389,4.779h-4.688c-0.765,0-1.386,0.621-1.386,1.386v5.545c0,0.765,0.621,1.386,1.386,1.386
		h1.386v5.545h-6.931v-22.179h55.446V126.33z M195.746,101.379h-55.446v-36.04h55.446V101.379z M197.132,62.567h-58.219v-2.772
		h58.219V62.567z M202.35,126.33c-0.239,0-0.406-0.236-0.327-0.461l2.196-6.244l1.971,6.255c0.07,0.223-0.097,0.45-0.33,0.45H202.35
		z M202.35,126.33"/>
</g>
<g>
	<path class="st1" d="M252.222,71.425C243.676,32.297,208.834,3,167.142,3c-48.1,0-87.092,38.992-87.092,87.092
		c0,48.1,38.993,87.092,87.092,87.092c41.691,0,76.534-29.297,85.08-68.425"/>
	<circle class="st2" cx="253.926" cy="90.092" r="6.268"/>
	<line class="st1" x1="67.34" y1="90.092" x2="3" y2="90.092"/>
</g>
</svg>