<!-- Generator: Adobe Illustrator 23.0.1, SVG Export Plug-In  -->
<svg version="1.1" xmlns="http://www.w3.org/2000/svg" xmlns:xlink="http://www.w3.org/1999/xlink" x="0px" y="0px"
	 width="260.193px" height="180.184px" viewBox="0 0 260.193 180.184" style="enable-background:new 0 0 260.193 180.184;"
	 xml:space="preserve">
<style type="text/css">
	.st0{fill:#F48120;}
	.st1{fill:none;stroke:#D0E4EA;stroke-width:6;stroke-linecap:round;stroke-miterlimit:10;}
	.st2{fill:#D0E4EA;}
</style>
<defs>
</defs>
<g>
	<path class="st0" d="M142.247,93.298H127.82V51.619c-0.005-5.31-4.308-9.613-9.618-9.618H84.538
		c-4.424,0.005-8.01,3.591-8.015,8.015v11.382c-3.729,0.766-6.407,4.047-6.412,7.854V83.68H52.478c-2.656,0-4.809,2.153-4.809,4.809
		v38.473c0,2.656,2.153,4.809,4.809,4.809h17.794c0.766,3.729,4.047,6.407,7.854,6.412h32.061c4.424-0.005,8.01-3.591,8.015-8.015
		v-20.839h16.03c5.31-0.005,9.613-4.308,9.618-9.618v-4.809C143.85,94.016,143.132,93.298,142.247,93.298L142.247,93.298z
		 M79.729,50.016c0-2.656,2.153-4.809,4.809-4.809h26.5c-1.582,1.761-2.457,4.045-2.455,6.412v22.442H79.729V50.016z
		 M50.874,126.962V88.489c0-0.885,0.718-1.603,1.603-1.603h25.649c0.885,0,1.603,0.718,1.603,1.603v38.473
		c0,0.885-0.718,1.603-1.603,1.603H52.478C51.593,128.565,50.874,127.847,50.874,126.962L50.874,126.962z M82.64,86.886h25.944
		v3.206H82.935v-1.603C82.93,87.942,82.83,87.4,82.64,86.886L82.64,86.886z M114.996,130.168c0,2.656-2.153,4.809-4.809,4.809
		H78.126c-2.031-0.008-3.837-1.291-4.514-3.206h4.514c2.656,0,4.809-2.153,4.809-4.809V93.298h27.252
		c0.885,0,1.603-0.718,1.603-1.603v-6.412c0-0.885-0.718-1.603-1.603-1.603h-36.87V69.253c0.008-2.031,1.291-3.837,3.206-4.514
		v10.926c0,0.885,0.718,1.603,1.603,1.603h32.061c0.885,0,1.603-0.718,1.603-1.603V64.739c1.915,0.676,3.198,2.483,3.206,4.514
		V130.168z M111.79,61.398v-9.779c0-3.541,2.871-6.412,6.412-6.412c3.541,0,6.412,2.871,6.412,6.412V99.71
		c0.001,2.369,0.88,4.654,2.468,6.412h-8.88v-36.87C118.197,65.445,115.519,62.164,111.79,61.398L111.79,61.398z M140.644,99.71
		c0,3.541-2.871,6.412-6.412,6.412s-6.412-2.871-6.412-6.412v-3.206h12.824V99.71z M140.644,99.71"/>
	<path class="st0" d="M97.362,96.504H90.95c-0.885,0-1.603,0.718-1.603,1.603v6.412c0,0.885,0.718,1.603,1.603,1.603h6.412
		c0.885,0,1.603-0.718,1.603-1.603v-6.412C98.965,97.222,98.247,96.504,97.362,96.504L97.362,96.504z M95.759,102.916h-3.206V99.71
		h3.206V102.916z M95.759,102.916"/>
	<path class="st0" d="M110.187,96.504h-6.412c-0.885,0-1.603,0.718-1.603,1.603v6.412c0,0.885,0.718,1.603,1.603,1.603h6.412
		c0.885,0,1.603-0.718,1.603-1.603v-6.412C111.79,97.222,111.072,96.504,110.187,96.504L110.187,96.504z M108.584,102.916h-3.206
		V99.71h3.206V102.916z M108.584,102.916"/>
	<path class="st0" d="M97.362,109.328H90.95c-0.885,0-1.603,0.718-1.603,1.603v6.412c0,0.885,0.718,1.603,1.603,1.603h6.412
		c0.885,0,1.603-0.718,1.603-1.603v-6.412C98.965,110.047,98.247,109.328,97.362,109.328L97.362,109.328z M95.759,115.741h-3.206
		v-3.206h3.206V115.741z M95.759,115.741"/>
	<path class="st0" d="M110.187,109.328h-6.412c-0.885,0-1.603,0.718-1.603,1.603v6.412c0,0.885,0.718,1.603,1.603,1.603h6.412
		c0.885,0,1.603-0.718,1.603-1.603v-6.412C111.79,110.047,111.072,109.328,110.187,109.328L110.187,109.328z M108.584,115.741
		h-3.206v-3.206h3.206V115.741z M108.584,115.741"/>
	<path class="st0" d="M97.362,122.153H90.95c-0.885,0-1.603,0.718-1.603,1.603v6.412c0,0.885,0.718,1.603,1.603,1.603h6.412
		c0.885,0,1.603-0.718,1.603-1.603v-6.412C98.965,122.871,98.247,122.153,97.362,122.153L97.362,122.153z M95.759,128.565h-3.206
		v-3.206h3.206V128.565z M95.759,128.565"/>
	<path class="st0" d="M110.187,122.153h-6.412c-0.885,0-1.603,0.718-1.603,1.603v6.412c0,0.885,0.718,1.603,1.603,1.603h6.412
		c0.885,0,1.603-0.718,1.603-1.603v-6.412C111.79,122.871,111.072,122.153,110.187,122.153L110.187,122.153z M108.584,128.565
		h-3.206v-3.206h3.206V128.565z M108.584,128.565"/>
	<rect x="82.935" y="48.413" class="st0" width="9.618" height="3.206"/>
	<rect x="95.759" y="48.413" class="st0" width="9.618" height="3.206"/>
	<rect x="82.935" y="54.825" class="st0" width="9.618" height="3.206"/>
	<rect x="95.759" y="54.825" class="st0" width="9.618" height="3.206"/>
	<rect x="82.935" y="61.237" class="st0" width="9.618" height="3.206"/>
	<rect x="95.759" y="61.237" class="st0" width="9.618" height="3.206"/>
	<rect x="82.935" y="67.65" class="st0" width="9.618" height="3.206"/>
	<rect x="95.759" y="67.65" class="st0" width="9.618" height="3.206"/>
	<path class="st0" d="M74.92,90.092H55.684c-0.885,0-1.603,0.718-1.603,1.603v6.412c0,0.885,0.718,1.603,1.603,1.603H74.92
		c0.885,0,1.603-0.718,1.603-1.603v-6.412C76.523,90.81,75.805,90.092,74.92,90.092L74.92,90.092z M73.317,96.504h-16.03v-3.206
		h16.03V96.504z M73.317,96.504"/>
	<path class="st0" d="M62.096,102.916h-6.412c-0.885,0-1.603,0.718-1.603,1.603v6.412c0,0.885,0.718,1.603,1.603,1.603h6.412
		c0.885,0,1.603-0.718,1.603-1.603v-6.412C63.699,103.635,62.981,102.916,62.096,102.916L62.096,102.916z M60.493,109.328h-3.206
		v-3.206h3.206V109.328z M60.493,109.328"/>
	<path class="st0" d="M74.92,102.916h-6.412c-0.885,0-1.603,0.718-1.603,1.603v6.412c0,0.885,0.718,1.603,1.603,1.603h6.412
		c0.885,0,1.603-0.718,1.603-1.603v-6.412C76.523,103.635,75.805,102.916,74.92,102.916L74.92,102.916z M73.317,109.328h-3.206
		v-3.206h3.206V109.328z M73.317,109.328"/>
	<path class="st0" d="M74.92,115.741h-6.412c-0.885,0-1.603,0.718-1.603,1.603v6.412c0,0.885,0.718,1.603,1.603,1.603h6.412
		c0.885,0,1.603-0.718,1.603-1.603v-6.412C76.523,116.459,75.805,115.741,74.92,115.741L74.92,115.741z M73.317,122.153h-3.206
		v-3.206h3.206V122.153z M73.317,122.153"/>
	<path class="st0" d="M62.096,115.741h-6.412c-0.885,0-1.603,0.718-1.603,1.603v6.412c0,0.885,0.718,1.603,1.603,1.603h6.412
		c0.885,0,1.603-0.718,1.603-1.603v-6.412C63.699,116.459,62.981,115.741,62.096,115.741L62.096,115.741z M60.493,122.153h-3.206
		v-3.206h3.206V122.153z M60.493,122.153"/>
</g>
<g>
	<path class="st1" d="M7.971,108.759c8.545,39.128,43.388,68.425,85.08,68.425c48.1,0,87.092-38.992,87.092-87.092
		C180.143,41.992,141.151,3,93.051,3C51.36,3,16.517,32.297,7.971,71.425"/>
	<circle class="st2" cx="6.268" cy="90.092" r="6.268"/>
	<line class="st1" x1="192.853" y1="90.092" x2="257.193" y2="90.092"/>
</g>
</svg>