<!-- Generator: Adobe Illustrator 23.0.1, SVG Export Plug-In  -->
<svg version="1.1" xmlns="http://www.w3.org/2000/svg" xmlns:xlink="http://www.w3.org/1999/xlink" x="0px" y="0px"
	 width="260.193px" height="180.184px" viewBox="0 0 260.193 180.184" style="enable-background:new 0 0 260.193 180.184;"
	 xml:space="preserve">
<style type="text/css">
	.st0{fill:#F48120;}
	.st1{fill:none;stroke:#D0E4EA;stroke-width:6;stroke-linecap:round;stroke-miterlimit:10;}
	.st2{fill:#D0E4EA;}
</style>
<defs>
</defs>
<g>
	<path class="st0" d="M138.254,134.533h-4.476V79.808h3.935c0.82,0,1.485-0.665,1.485-1.485v-9.8c0-0.82-0.665-1.485-1.485-1.485
		h-3.935v-9.909c0-0.82-0.665-1.485-1.485-1.485h-12.486c-2.352-11.141-12.259-19.53-24.09-19.53s-21.738,8.388-24.09,19.53h-13.75
		c-0.82,0-1.485,0.665-1.485,1.485v9.909h-3.933c-0.82,0-1.485,0.665-1.485,1.485v9.8c0,0.82,0.665,1.485,1.485,1.485h27.709
		c4.242,3.465,9.657,5.546,15.548,5.546c10.297,0,19.135-6.354,22.805-15.346h17.705v6.83h-17.561c-0.82,0-1.485,0.665-1.485,1.485
		s0.665,1.485,1.485,1.485h12.141v54.725H93.405V95.185c0-0.82-0.665-1.485-1.485-1.485H66.942c-0.82,0-1.485,0.665-1.485,1.485
		v39.349h-6.094v-50.27c0-0.82-0.665-1.485-1.485-1.485c-0.82,0-1.485,0.665-1.485,1.485v50.27h-3.213
		c-0.82,0-1.485,0.665-1.485,1.485s0.665,1.485,1.485,1.485h4.698h9.065H91.92h40.373h5.962c0.82,0,1.485-0.665,1.485-1.485
		S139.075,134.533,138.254,134.533z M53.944,70.008h13.343c0.82,0,1.485-0.665,1.485-1.485s-0.665-1.485-1.485-1.485h-7.925v-8.424
		h11.826c-0.06,0.699-0.092,1.406-0.092,2.12c0,6.152,2.268,11.784,6.012,16.104H53.944V70.008z M95.717,82.383
		c-11.938,0-21.65-9.712-21.65-21.65s9.712-21.65,21.65-21.65s21.65,9.712,21.65,21.65S107.655,82.383,95.717,82.383z
		 M120.245,58.613h10.562v8.424h-11.289c0.533-2.013,0.819-4.126,0.819-6.304C120.337,60.019,120.305,59.312,120.245,58.613z
		 M68.427,134.533V96.67h22.008v37.863H68.427z"/>
	<path class="st0" d="M72.003,113.288c-0.82,0-1.485,0.665-1.485,1.485v4.708c0,0.82,0.665,1.485,1.485,1.485
		s1.485-0.665,1.485-1.485v-4.708C73.488,113.953,72.823,113.288,72.003,113.288z"/>
	<path class="st0" d="M124.212,119.245c0.82,0,1.485-0.665,1.485-1.485V95.185c0-0.82-0.665-1.485-1.485-1.485H100
		c-0.82,0-1.485,0.665-1.485,1.485v22.575c0,0.82,0.665,1.485,1.485,1.485L124.212,119.245L124.212,119.245z M101.486,96.67h21.242
		v19.604h-21.242V96.67z"/>
	<path class="st0" d="M102.111,54.34C102.111,54.34,102.11,54.34,102.111,54.34l-3.931-3.931c0,0,0,0,0,0
		c-1.705-1.705-3.975-2.645-6.396-2.648c-2.417,0.003-4.687,0.944-6.392,2.648c-1.708,1.708-2.648,3.978-2.648,6.394
		s0.94,4.686,2.648,6.394l7.862,7.862c1.763,1.763,4.078,2.644,6.394,2.644c2.315,0,4.631-0.881,6.394-2.644
		c3.525-3.526,3.525-9.262,0-12.787L102.111,54.34z M85.715,56.803c0-1.622,0.632-3.147,1.778-4.293
		c1.145-1.145,2.67-1.777,4.291-1.778c1.625,0.002,3.15,0.634,4.295,1.778l2.881,2.881l-8.587,8.587l-2.881-2.881
		C86.346,59.95,85.715,58.425,85.715,56.803z M96.306,69.735c-0.336-0.222-0.655-0.481-0.951-0.777l-2.881-2.881l8.587-8.587
		l2.881,2.881c0.666,0.666,1.144,1.449,1.436,2.284c0.065,0.186,0.12,0.373,0.167,0.563c0.023,0.095,0.044,0.19,0.062,0.286
		c0.074,0.383,0.111,0.772,0.111,1.16c0,1.555-0.592,3.11-1.775,4.293c-0.592,0.592-1.277,1.036-2.008,1.332
		C100.106,71.029,97.988,70.844,96.306,69.735z"/>
</g>
<g>
	<path class="st1" d="M7.971,108.759c8.545,39.128,43.388,68.425,85.08,68.425c48.1,0,87.092-38.992,87.092-87.092
		C180.143,41.992,141.151,3,93.051,3C51.36,3,16.517,32.297,7.971,71.425"/>
	<circle class="st2" cx="6.268" cy="90.092" r="6.268"/>
	<line class="st1" x1="192.853" y1="90.092" x2="257.193" y2="90.092"/>
</g>
</svg>