<!-- Generator: Adobe Illustrator 23.0.1, SVG Export Plug-In  -->
<svg version="1.1" xmlns="http://www.w3.org/2000/svg" xmlns:xlink="http://www.w3.org/1999/xlink" x="0px" y="0px"
	 width="260.193px" height="180.184px" viewBox="0 0 260.193 180.184" style="enable-background:new 0 0 260.193 180.184;"
	 xml:space="preserve">
<style type="text/css">
	.st0{fill:#F48120;}
	.st1{fill:none;stroke:#D0E4EA;stroke-width:6;stroke-linecap:round;stroke-miterlimit:10;}
	.st2{fill:#D0E4EA;}
</style>
<defs>
</defs>
<g>
	<path class="st0" d="M176.257,128.021h-4.346v-17.384h-3.161v17.384h-3.161V99.137l1.58-0.903l1.58,0.903v8.339h3.161v-6.54
		c4.077,2.162,8.975,2.09,12.987-0.189l4.498-2.571l4.832,2.071c1.709,0.733,3.672,0.557,5.224-0.466
		c1.552-1.024,2.487-2.759,2.487-4.618v-3.096c-0.002-1.963-1.593-3.554-3.556-3.556h-10.668V44.261c0-0.872-0.708-1.58-1.58-1.58
		h-37.929c-0.872,0-1.58,0.708-1.58,1.58v7.902h3.161v-6.322h15.804V82.19h-4.346c-1.963,0.002-3.554,1.593-3.556,3.556v2.766
		h-7.902V55.323h-3.161v33.188h-10.668c-1.963,0.002-3.554,1.593-3.556,3.556v3.096c0,1.859,0.934,3.594,2.487,4.618
		c1.552,1.023,3.515,1.199,5.224,0.466l4.832-2.071l4.498,2.571c4.012,2.279,8.91,2.351,12.987,0.189v27.085h-4.346
		c-1.963,0.002-3.554,1.593-3.556,3.556v4.346c0,0.872,0.708,1.58,1.58,1.58h22.125c0.872,0,1.58-0.708,1.58-1.58v-4.346
		C179.81,129.614,178.22,128.024,176.257,128.021L176.257,128.021z M168.75,45.841h15.804v42.671h-7.902v-2.766
		c-0.002-1.963-1.593-3.554-3.556-3.556h-4.346V45.841z M160.848,85.746c0-0.218,0.177-0.395,0.395-0.395h11.853
		c0.218,0,0.395,0.177,0.395,0.395v2.766h-12.643V85.746z M151.01,98.002l-5.182-2.961c-0.43-0.246-0.951-0.276-1.407-0.08
		l-5.555,2.381c-0.733,0.314-1.574,0.239-2.239-0.199c-0.666-0.438-1.066-1.182-1.066-1.979v-3.096c0-0.218,0.177-0.395,0.395-0.395
		h62.426c0.218,0,0.395,0.177,0.395,0.395v3.096c0,0.796-0.4,1.54-1.066,1.979c-0.665,0.438-1.506,0.513-2.239,0.199l-5.555-2.381
		c-0.456-0.195-0.976-0.166-1.407,0.08l-5.182,2.961c-3.16,1.797-7.033,1.797-10.192,0l-5.182-2.961
		c-0.486-0.277-1.083-0.277-1.568,0l-5.182,2.961C158.043,99.799,154.17,99.799,151.01,98.002L151.01,98.002z M176.652,134.343
		h-18.965v-2.766c0-0.218,0.177-0.395,0.395-0.395h18.175c0.218,0,0.395,0.177,0.395,0.395V134.343z M176.652,134.343"/>
	<path class="st0" d="M213.001,79.029h-2.371c-3.054,0.003-5.528,2.478-5.531,5.531v7.902c0.003,3.054,2.478,5.528,5.531,5.531h0.79
		v2.724l-4.056,6.759h-22.416c-1.963,0.002-3.554,1.593-3.556,3.556v4.346c0,0.872,0.708,1.58,1.58,1.58h11.753l-8.023,17.384h-3.73
		v3.161h4.741c0.616,0,1.177-0.358,1.435-0.918l9.059-19.627h5.633l4.458,19.32c0.166,0.717,0.805,1.225,1.54,1.225h4.741v-3.161
		h-3.484l-4.418-19.145v-4.166c0-0.132-0.007-0.263-0.022-0.395h1.602c0.556,0,1.07-0.291,1.355-0.768l4.741-7.902
		c0.147-0.245,0.225-0.527,0.225-0.813V80.61C214.581,79.737,213.873,79.029,213.001,79.029L213.001,79.029z M203.518,111.032v2.766
		h-18.965v-2.766c0-0.218,0.177-0.395,0.395-0.395h18.175C203.341,110.637,203.518,110.814,203.518,111.032L203.518,111.032z
		 M208.26,92.463v-7.902c0.001-1.309,1.062-2.37,2.371-2.371h0.79v12.643h-0.79C209.321,94.832,208.261,93.771,208.26,92.463
		L208.26,92.463z M208.26,92.463"/>
	<path class="st0" d="M149.39,107.476h-22.416l-4.056-6.759v-2.724h0.79c3.054-0.003,5.528-2.478,5.531-5.531v-7.902
		c-0.003-3.054-2.478-5.528-5.531-5.531h-2.371c-0.872,0-1.58,0.708-1.58,1.58v20.545c0,0.286,0.078,0.568,0.225,0.813l4.741,7.902
		c0.285,0.476,0.8,0.768,1.355,0.768h1.602c-0.014,0.132-0.022,0.263-0.022,0.395v4.166l-4.418,19.145h-3.484v3.161h4.741
		c0.736,0,1.375-0.508,1.54-1.225l4.458-19.32h5.633l9.059,19.627c0.258,0.56,0.819,0.918,1.435,0.918h4.741v-3.161h-3.73
		l-8.023-17.384h11.753c0.872,0,1.58-0.708,1.58-1.58v-4.346C152.944,109.069,151.353,107.478,149.39,107.476L149.39,107.476z
		 M122.918,82.19h0.79c1.309,0.001,2.37,1.062,2.371,2.371v7.902c-0.001,1.309-1.062,2.37-2.371,2.371h-0.79V82.19z
		 M149.785,113.798H130.82v-2.766c0-0.218,0.177-0.395,0.395-0.395h18.175c0.218,0,0.395,0.177,0.395,0.395V113.798z
		 M149.785,113.798"/>
</g>
<g>
	<path class="st1" d="M252.222,71.425C243.676,32.297,208.834,3,167.142,3c-48.1,0-87.092,38.992-87.092,87.092
		c0,48.1,38.993,87.092,87.092,87.092c41.691,0,76.534-29.297,85.08-68.425"/>
	<circle class="st2" cx="253.926" cy="90.092" r="6.268"/>
	<line class="st1" x1="67.34" y1="90.092" x2="3" y2="90.092"/>
</g>
</svg>