<!-- Generator: Adobe Illustrator 23.0.1, SVG Export Plug-In  -->
<svg version="1.1" xmlns="http://www.w3.org/2000/svg" xmlns:xlink="http://www.w3.org/1999/xlink" x="0px" y="0px"
	 width="623.151px" height="591.264px" viewBox="0 0 623.151 591.264" style="enable-background:new 0 0 623.151 591.264;"
	 xml:space="preserve">
<style type="text/css">
	.st0{fill:#EE4D8E;}
	.st1{fill:#F9D832;}
	.st2{fill:#00C9D8;}
	.st3{fill:#592189;}
</style>
<defs>
</defs>
<g>
	
		<rect x="453.072" transform="matrix(-1 -1.224647e-16 1.224647e-16 -1 991.1833 85.0394)" class="st0" width="85.039" height="85.039"/>
	<circle class="st1" cx="538.111" cy="42.52" r="42.52"/>
	<g>
		<path class="st2" d="M538.111,0c23.483,0,42.52,19.037,42.52,42.52s-19.037,42.52-42.52,42.52"/>
	</g>
	<g>
		
			<rect x="538.111" y="85.039" transform="matrix(-1 -1.224647e-16 1.224647e-16 -1 1161.2621 255.1181)" class="st3" width="85.039" height="85.039"/>
		<path class="st2" d="M623.151,170.079c-23.483,0-42.52-19.037-42.52-42.52s19.037-42.52,42.52-42.52V170.079z"/>
	</g>
	<g>
		<path class="st1" d="M453.072,85.039c-23.483,0-42.52-19.037-42.52-42.52S429.589,0,453.072,0V85.039z"/>
		<path class="st2" d="M453.072,63.78c-11.741,0-21.26-9.518-21.26-21.26s9.518-21.26,21.26-21.26V63.78z"/>
	</g>
	<g>
		<defs>
			<path id="SVGID_1_" d="M284.999,591.264h-31.887C113.322,591.264,0,477.942,0,338.152v-0.001
				C0,198.362,113.322,85.039,253.112,85.039h284.999v253.113C538.111,477.942,424.789,591.264,284.999,591.264z"/>
		</defs>
		<radialGradient id="SVGID_2_" cx="229.7872" cy="178.2594" r="403.5222" gradientUnits="userSpaceOnUse">
			<stop  offset="0" style="stop-color:#FFFFFF"/>
			<stop  offset="1" style="stop-color:#D0E4EA"/>
		</radialGradient>
		<use xlink:href="#SVGID_1_"  style="overflow:visible;fill:url(#SVGID_2_);"/>
		<clipPath id="SVGID_3_">
			<use xlink:href="#SVGID_1_"  style="overflow:visible;"/>
		</clipPath>
	</g>
</g>
</svg>